<?xml version="1.0" standalone="no"?>
<!DOCTYPE svg PUBLIC "-//W3C//DTD SVG 20010904//EN"
 "http://www.w3.org/TR/2001/REC-SVG-20010904/DTD/svg10.dtd">
<svg version="1.0" xmlns="http://www.w3.org/2000/svg"
 width="512.000000pt" height="512.000000pt" viewBox="0 0 512.000000 512.000000"
 preserveAspectRatio="xMidYMid meet">

<g transform="translate(0.000000,512.000000) scale(0.100000,-0.100000)"
fill="#000000" stroke="none">
<path d="M2394 5040 c-774 -51 -1478 -462 -1913 -1116 -285 -428 -425 -925
-408 -1449 12 -373 91 -692 251 -1020 361 -737 1056 -1245 1876 -1370 149 -23
419 -30 580 -16 605 53 1161 320 1583 760 371 388 600 865 672 1407 22 158 22
469 0 629 -38 287 -115 541 -241 795 -129 259 -272 458 -469 655 -512 511
-1209 772 -1931 725z m453 -949 c254 -64 377 -197 282 -305 -38 -44 -150 -89
-281 -113 -140 -26 -459 -24 -588 4 -196 43 -290 100 -290 177 0 102 117 190
313 236 121 28 127 28 312 25 131 -2 189 -8 252 -24z m-705 -460 c103 -36 243
-53 418 -53 237 0 426 35 521 97 20 13 40 21 43 18 3 -4 6 -25 6 -48 0 -57 34
-187 70 -262 42 -90 84 -149 162 -225 l69 -68 -35 -35 c-38 -38 -61 -100 -52
-143 5 -24 1 -29 -44 -50 -54 -25 -88 -69 -97 -125 -5 -32 -8 -35 -48 -39 -54
-7 -100 -39 -125 -88 -20 -38 -21 -39 -74 -39 -61 1 -102 -17 -139 -60 -25
-30 -26 -30 -61 -16 -62 26 -127 16 -174 -28 -15 -14 -25 -18 -30 -10 -30 47
-138 68 -196 38 -31 -16 -32 -16 -56 27 -5 9 -30 26 -56 38 -35 17 -56 21 -90
16 -42 -5 -45 -4 -55 22 -19 49 -68 90 -125 103 -50 11 -52 13 -58 50 -8 48
-63 112 -108 125 -31 9 -32 12 -30 52 4 50 -27 123 -62 145 -23 15 -22 15 63
104 128 130 197 278 216 457 l7 66 42 -25 c24 -14 68 -34 98 -44z m-467 -626
c35 -34 34 -93 -1 -129 -58 -57 -154 -17 -154 65 0 33 5 42 37 64 48 32 87 32
118 0z m1883 5 c90 -55 40 -185 -64 -166 -84 16 -101 130 -26 170 36 20 51 20
90 -4z m-2076 -177 c13 -14 42 -34 65 -44 40 -19 41 -20 36 -58 -11 -84 72
-181 154 -181 28 0 31 -4 38 -37 17 -91 86 -147 177 -142 47 3 51 1 65 -27 46
-90 147 -130 225 -90 26 14 29 13 71 -30 26 -25 54 -44 67 -44 12 0 20 -4 18
-8 -1 -4 -23 -48 -48 -98 -36 -73 -45 -101 -48 -156 -5 -83 8 -124 60 -183
106 -120 277 -127 388 -15 95 95 103 199 26 354 -25 51 -46 95 -46 98 0 3 11
9 25 12 13 3 40 22 59 42 34 35 37 36 66 24 43 -18 130 -8 168 18 17 12 39 40
49 62 18 39 19 40 59 34 83 -12 174 54 189 138 6 34 10 36 51 43 83 12 144 88
144 179 0 38 3 45 24 50 58 14 116 88 116 147 0 26 3 30 18 24 28 -12 174 -61
212 -71 l35 -10 -3 -95 c-13 -427 -147 -875 -356 -1189 -320 -480 -835 -696
-1323 -554 -532 154 -920 675 -1043 1402 -23 136 -40 300 -40 381 l0 58 53 12
c28 7 86 25 127 40 l75 28 12 -45 c6 -24 22 -55 35 -69z m311 -35 c33 -17 46
-39 47 -76 0 -46 -16 -71 -56 -88 -29 -12 -39 -12 -68 0 -19 8 -39 23 -45 34
-43 80 44 172 122 130z m1612 -2 c38 -16 55 -42 55 -85 0 -43 -9 -60 -41 -76
-43 -23 -77 -18 -110 14 -48 49 -37 120 24 146 40 18 32 17 72 1z m-1421 -177
c14 -7 32 -26 40 -43 38 -80 -46 -162 -123 -122 -60 31 -70 99 -22 147 31 31
64 36 105 18z m1231 -3 c63 -26 75 -97 26 -147 -58 -58 -150 -22 -151 59 0 45
16 71 53 87 40 18 32 17 72 1z m-988 -131 c51 -35 50 -117 -2 -151 -94 -61
-195 58 -116 137 33 33 82 39 118 14z m791 -20 c40 -46 26 -112 -29 -141 -61
-31 -133 14 -133 83 0 28 7 42 33 65 28 25 39 29 70 24 21 -3 45 -16 59 -31z
m-516 -68 c28 -35 23 -84 -11 -118 -73 -72 -186 3 -146 97 26 64 115 76 157
21z m253 8 c35 -34 35 -96 0 -130 -54 -55 -155 -11 -155 68 0 77 100 118 155
62z m-159 -202 c39 -31 116 -156 140 -227 46 -135 -37 -256 -176 -256 -91 0
-157 53 -182 144 -11 40 -10 53 7 101 32 97 140 261 173 265 2 0 19 -12 38
-27z"/>
</g>
</svg>
